/* XPM */
static char * shade_toggled_prelight_xpm[] = {
"24 26 4 1",
" 	c None",
".	c #101434",
"+	c #c3c4cc",
"@	c #869C7B",
"@@@@@@@@@@@@@@@@@@@@@@@@",
"........................",
"........................",
"........................",
"........................",
"........................",
"........................",
"........................",
"........................",
"...........++...........",
"...........++...........",
"...........++...........",
".......+++.++.+++.......",
"........++++++++........",
".........++++++.........",
"..........++++..........",
"...........++...........",
"........................",
"........................",
"........................",
"........................",
"........................",
"........................",
"........................",
"........................",
"........................"};
